<?xml version="1.0" ?><svg id="Layer_1" style="enable-background:new 0 0 595.3 595.3;" version="1.1" viewBox="0 0 595.3 595.3" xml:space="preserve" xmlns="http://www.w3.org/2000/svg" xmlns:xlink="http://www.w3.org/1999/xlink"><style type="text/css">
	.st0{fill:#FFFFFF;}
	.st1{fill:#EDBD44;}
	.st2{fill:#C5802A;}
	.st3{fill:#009444;}
	.st4{fill:#006838;}
	.st5{fill:#77AAB6;}
	.st6{fill:#167D88;}
	.st7{fill:#005A67;}
	.st8{fill:#6F2334;}
	.st9{fill:#460618;}
	.st10{fill:#961634;}
	.st11{fill:#008245;}
	.st12{fill:#35A0AD;}
	.st13{fill:#203A40;}
	.st14{fill:#27545D;}
</style><rect class="st0" height="595.3" width="595.3"/><g><g><g><circle class="st1" cx="297.6" cy="296.4" r="177.5"/></g></g><g><g><g><path class="st2" d="M297.6,442.1c-80.3,0-145.7-65.4-145.7-145.7c0-80.3,65.4-145.7,145.7-145.7s145.7,65.4,145.7,145.7      C443.3,376.7,378,442.1,297.6,442.1z M297.6,171.8c-68.7,0-124.6,55.9-124.6,124.6c0,68.7,55.9,124.6,124.6,124.6      s124.6-55.9,124.6-124.6C422.2,227.7,366.3,171.8,297.6,171.8z"/></g></g></g><g><g><g><path class="st2" d="M297.6,143.6c-1.6,0-3-1.3-3-3l0-11.8c0-1.6,1.3-3,3-3c1.6,0,3,1.3,3,3l0,11.8      C300.6,142.3,299.3,143.6,297.6,143.6z"/></g></g><g><g><path class="st2" d="M407.8,189.2c-0.8,0-1.5-0.3-2.1-0.9c-1.2-1.2-1.2-3,0-4.2l8.3-8.3c1.2-1.2,3-1.2,4.2,0      c1.2,1.2,1.2,3,0,4.2l-8.3,8.3C409.3,188.9,408.5,189.2,407.8,189.2z"/></g></g><g><g><path class="st2" d="M465.2,299.4l-11.8,0c-1.6,0-3-1.3-3-3c0-1.6,1.3-3,3-3l11.8,0c1.6,0,3,1.3,3,3      C468.2,298,466.8,299.4,465.2,299.4z"/></g></g><g><g><path class="st2" d="M416.1,417.8c-0.8,0-1.5-0.3-2.1-0.9l-8.3-8.3c-1.2-1.2-1.2-3,0-4.2c1.2-1.2,3-1.2,4.2,0l8.3,8.3      c1.2,1.2,1.2,3,0,4.2C417.6,417.5,416.9,417.8,416.1,417.8z"/></g></g><g><g><path class="st2" d="M297.6,466.9c-1.6,0-3-1.3-3-3l0-11.8c0-1.6,1.3-3,3-3c1.6,0,3,1.3,3,3l0,11.8      C300.6,465.6,299.3,466.9,297.6,466.9z"/></g></g><g><g><path class="st2" d="M179.2,417.8c-0.8,0-1.5-0.3-2.1-0.9c-1.2-1.2-1.2-3,0-4.2l8.3-8.3c1.2-1.2,3-1.2,4.2,0      c1.2,1.2,1.2,3,0,4.2l-8.3,8.3C180.7,417.6,179.9,417.8,179.2,417.8z"/></g></g><g><g><path class="st2" d="M141.9,299.4l-11.8,0c-1.6,0-3-1.3-3-3c0-1.6,1.3-3,3-3l11.8,0c1.6,0,3,1.3,3,3      C144.8,298,143.5,299.4,141.9,299.4z"/></g></g><g><g><path class="st2" d="M187.5,189.2c-0.8,0-1.5-0.3-2.1-0.9l-8.3-8.3c-1.2-1.2-1.2-3,0-4.2c1.2-1.2,3-1.2,4.2,0l8.3,8.3      c1.2,1.2,1.2,3,0,4.2C189,188.9,188.2,189.2,187.5,189.2z"/></g></g></g><g><g><g><path class="st2" d="M356.4,155.1c-0.4,0-0.8-0.1-1.1-0.2c-1.5-0.6-2.2-2.4-1.6-3.9l4.5-10.9c0.6-1.5,2.4-2.2,3.9-1.6      c1.5,0.6,2.2,2.4,1.6,3.9l-4.5,10.9C358.7,154.4,357.6,155.1,356.4,155.1z"/></g></g><g><g><path class="st2" d="M441.2,238.9c-1.2,0-2.3-0.7-2.7-1.8c-0.6-1.5,0.1-3.3,1.6-3.9l10.9-4.6c1.5-0.6,3.3,0.1,3.9,1.6      c0.6,1.5-0.1,3.3-1.6,3.9l-10.9,4.6C442,238.9,441.6,238.9,441.2,238.9z"/></g></g><g><g><path class="st2" d="M452.8,362.6c-0.4,0-0.8-0.1-1.1-0.2l-10.9-4.5c-1.5-0.6-2.2-2.4-1.6-3.9c0.6-1.5,2.4-2.2,3.9-1.6l10.9,4.5      c1.5,0.6,2.2,2.4,1.6,3.9C455.1,361.9,454,362.6,452.8,362.6z"/></g></g><g><g><path class="st2" d="M362.6,453.8c-1.2,0-2.3-0.7-2.7-1.8l-4.6-10.9c-0.6-1.5,0.1-3.3,1.6-3.9c1.5-0.6,3.3,0.1,3.9,1.6l4.6,10.9      c0.6,1.5-0.1,3.3-1.6,3.9C363.4,453.7,363,453.8,362.6,453.8z"/></g></g><g><g><path class="st2" d="M234.4,454.5c-0.4,0-0.8-0.1-1.1-0.2c-1.5-0.6-2.2-2.4-1.6-3.9l4.5-10.9c0.6-1.5,2.4-2.2,3.9-1.6      c1.5,0.6,2.2,2.4,1.6,3.9l-4.5,10.9C236.7,453.8,235.6,454.5,234.4,454.5z"/></g></g><g><g><path class="st2" d="M143.2,364.4c-1.2,0-2.3-0.7-2.7-1.8c-0.6-1.5,0.1-3.3,1.6-3.9l10.9-4.6c1.5-0.6,3.3,0.1,3.9,1.6      c0.6,1.5-0.1,3.3-1.6,3.9l-10.9,4.6C144,364.3,143.6,364.4,143.2,364.4z"/></g></g><g><g><path class="st2" d="M153.4,240.6c-0.4,0-0.8-0.1-1.1-0.2l-10.9-4.5c-1.5-0.6-2.2-2.4-1.6-3.9c0.6-1.5,2.4-2.2,3.9-1.6l10.9,4.5      c1.5,0.6,2.2,2.4,1.6,3.9C155.7,239.9,154.6,240.6,153.4,240.6z"/></g></g><g><g><path class="st2" d="M237.2,155.8c-1.2,0-2.3-0.7-2.7-1.8l-4.6-10.9c-0.6-1.5,0.1-3.3,1.6-3.9c1.5-0.6,3.3,0.1,3.9,1.6l4.6,10.9      c0.6,1.5-0.1,3.3-1.6,3.9C238,155.7,237.6,155.8,237.2,155.8z"/></g></g></g><g><path class="st2" d="M366.5,393.2c-0.7,0-1.5-0.3-2-1c-0.9-1.1-0.7-2.7,0.4-3.5c28.3-22.2,43.9-50.5,46.4-83.9    c1.9-24.7-4.4-43.6-5.1-45.6c0,0,0-0.1,0-0.1c-0.4-1.3,0.3-2.7,1.6-3.1c1.3-0.4,2.7,0.3,3.1,1.6c0.8,2.2,7.3,22,5.4,47.7    c-1.8,24-11.7,58.7-48.3,87.5C367.6,393,367,393.2,366.5,393.2z"/></g><g><path class="st2" d="M320.9,414.3c-1.2,0-2.3-0.9-2.5-2.1c-0.2-1.4,0.7-2.6,2.1-2.8c17-2.6,33.8-13.8,34-13.9    c1.1-0.8,2.7-0.5,3.5,0.7c0.8,1.1,0.5,2.7-0.7,3.5c-0.7,0.5-17.8,11.9-36,14.7C321.2,414.3,321.1,414.3,320.9,414.3z"/></g><g><path class="st2" d="M390.3,476.4H236.6c-1.4,0-2.5-1.1-2.5-2.5c0-1.4,1.1-2.5,2.5-2.5h153.7c1.4,0,2.5,1.1,2.5,2.5    C392.8,475.3,391.7,476.4,390.3,476.4z"/></g><g><path class="st2" d="M438.2,476.4h-33.4c-1.4,0-2.5-1.1-2.5-2.5c0-1.4,1.1-2.5,2.5-2.5h33.4c1.4,0,2.5,1.1,2.5,2.5    C440.7,475.3,439.6,476.4,438.2,476.4z"/></g><g><path class="st2" d="M223.3,476.4h-11c-1.4,0-2.5-1.1-2.5-2.5c0-1.4,1.1-2.5,2.5-2.5h11c1.4,0,2.5,1.1,2.5,2.5    C225.8,475.3,224.6,476.4,223.3,476.4z"/></g><g><path class="st2" d="M199.1,476.4h-22.9c-1.4,0-2.5-1.1-2.5-2.5c0-1.4,1.1-2.5,2.5-2.5h22.9c1.4,0,2.5,1.1,2.5,2.5    C201.6,475.3,200.4,476.4,199.1,476.4z"/></g><g><g><g><path class="st2" d="M302.5,388.6c-24,0-47.7-9.3-65.4-27c-36-36-36-94.6,0-130.6c27.6-27.6,69.8-34.9,105-18.1      c6.5,3.1,9.2,10.9,6.2,17.4c-3.1,6.5-10.9,9.2-17.4,6.2c-25.3-12-55.6-6.8-75.4,13c-25.9,25.9-25.9,67.9,0,93.8      c19.8,19.8,50,25,75.3,13.1c6.5-3.1,14.3-0.3,17.3,6.2c3.1,6.5,0.3,14.3-6.2,17.3C329.3,385.7,315.8,388.6,302.5,388.6z"/></g></g><g><rect class="st2" height="14.2" width="109.2" x="191.5" y="272.3"/></g><g><rect class="st2" height="14.2" width="109.2" x="191.5" y="306"/></g></g></g></svg>